<svg width="167" height="48" viewBox="0 0 167 48" fill="none" xmlns="http://www.w3.org/2000/svg">
<circle cx="22.6001" cy="24.25" r="20.5" stroke="#6927DA" stroke-width="3"/>
<path d="M37.0958 9.75427C39.1072 11.7657 39.7311 15.1628 38.6475 19.3769C37.5735 23.5531 34.8711 28.2424 30.7319 32.3817C26.5926 36.5209 21.9033 39.2233 17.7271 40.2973C13.513 41.3809 10.1159 40.7571 8.10446 38.7456C6.09305 36.7342 5.46921 33.3371 6.55283 29.1231C7.62683 24.9468 10.3292 20.2575 14.4684 16.1182C18.6077 11.979 23.297 9.27664 27.4732 8.20264C31.6873 7.11902 35.0844 7.74286 37.0958 9.75427Z" stroke="#6927DA" stroke-width="3"/>
<path d="M8.10412 9.75426C10.1155 7.74285 13.5126 7.11901 17.7267 8.20263C21.903 9.27662 26.5923 11.979 30.7315 16.1182C34.8708 20.2575 37.5731 24.9468 38.6471 29.123C39.7308 33.3371 39.1069 36.7342 37.0955 38.7456C35.0841 40.757 31.687 41.3809 27.4729 40.2973C23.2966 39.2233 18.6073 36.5209 14.4681 32.3817C10.3288 28.2424 7.62649 23.5531 6.55249 19.3768C5.46887 15.1628 6.09271 11.7657 8.10412 9.75426Z" stroke="#6927DA" stroke-width="3"/>
<path d="M63.4501 34.2401C68.1601 34.2401 71.3401 31.7801 71.3401 27.8501C71.3401 19.5401 60.3001 23.0801 60.3001 18.7001C60.3001 17.4701 61.4101 16.6301 63.1801 16.6301C65.1901 16.6301 66.4501 17.7101 66.6001 19.3601H70.8901C70.7701 15.3701 67.7101 12.7601 63.1801 12.7601C58.9201 12.7601 55.9201 15.2201 55.9201 18.7001C55.9201 26.9501 66.8101 23.8001 66.8101 27.9101C66.8101 29.5001 65.4601 30.3401 63.4501 30.3401C61.2301 30.3401 59.8201 28.9901 59.6401 26.8601H55.3201C55.5001 31.3301 58.6801 34.2401 63.4501 34.2401Z" fill="#101828"/>
<path d="M72.3603 40.1201H76.5303V32.6501C77.3403 33.6701 78.8103 34.2401 80.5203 34.2401C84.8703 34.2401 87.8103 31.1501 87.8103 26.4401C87.8103 21.7301 85.1103 18.6401 80.8803 18.6401C78.9303 18.6401 77.4303 19.3601 76.5303 20.5301V18.8801H72.3603V40.1201ZM80.0103 30.6401C77.7603 30.6401 76.2903 28.9601 76.2903 26.4401C76.2903 23.8901 77.7603 22.2101 80.0103 22.2101C82.2003 22.2101 83.7003 23.8901 83.7003 26.4401C83.7003 28.9601 82.2003 30.6401 80.0103 30.6401Z" fill="#101828"/>
<path d="M88.8193 34.0001H92.9893V25.7201C92.9893 23.7701 94.2793 22.3601 96.1093 22.3601C97.8493 22.3601 99.0493 23.6801 99.0493 25.5101V34.0001H103.219V24.5801C103.219 21.1001 100.999 18.6401 97.6093 18.6401C95.5093 18.6401 93.8593 19.5101 92.9893 20.9801V12.3101H88.8193V34.0001Z" fill="#101828"/>
<path d="M114.885 28.8701C114.555 30.1601 113.445 30.8201 111.765 30.8201C109.665 30.8201 108.315 29.5001 108.015 27.3701H118.875C118.905 27.0401 118.935 26.5901 118.935 26.0201C118.935 22.5701 116.805 18.6401 111.465 18.6401C106.335 18.6401 103.995 22.5701 103.995 26.4101C103.995 30.2201 106.635 34.2401 111.765 34.2401C115.485 34.2401 118.365 32.1401 118.965 28.8701H114.885ZM111.465 21.7001C113.475 21.7001 114.645 23.0501 114.765 24.7301H108.075C108.435 22.6301 109.575 21.7001 111.465 21.7001Z" fill="#101828"/>
<path d="M129.871 22.3601V18.8801H127.719C125.889 18.8801 124.749 19.5101 123.939 21.4001V18.8801H119.739V34.0001H123.939V26.6501C123.939 24.0701 124.869 22.3601 126.939 22.3601H129.871Z" fill="#101828"/>
<path d="M144.271 18.8801H140.071V27.1601C140.071 29.0801 138.781 30.5201 136.951 30.5201C135.241 30.5201 134.041 29.2001 134.041 27.3701V18.8801H129.871V28.3001C129.871 31.7501 132.091 34.2401 135.481 34.2401C137.551 34.2401 139.231 33.3401 140.071 31.9001V34.0001H144.271V18.8801Z" fill="#101828"/>
<path d="M146.071 34.0001H150.241V12.3101H146.071V34.0001Z" fill="#101828"/>
<path d="M162.146 28.8701C161.816 30.1601 160.706 30.8201 159.026 30.8201C156.926 30.8201 155.576 29.5001 155.276 27.3701H166.136C166.166 27.0401 166.196 26.5901 166.196 26.0201C166.196 22.5701 164.066 18.6401 158.726 18.6401C153.596 18.6401 151.256 22.5701 151.256 26.4101C151.256 30.2201 153.896 34.2401 159.026 34.2401C162.746 34.2401 165.626 32.1401 166.226 28.8701H162.146ZM158.726 21.7001C160.736 21.7001 161.906 23.0501 162.026 24.7301H155.336C155.696 22.6301 156.836 21.7001 158.726 21.7001Z" fill="#101828"/>
</svg>
