<svg width="199" height="48" viewBox="0 0 199 48" fill="none" xmlns="http://www.w3.org/2000/svg">
<path d="M36.7064 11.1631C36.2742 10.7309 35.842 10.2986 35.4098 9.86642C34.1131 8.48331 32.73 7.10021 31.0011 6.23577C29.0129 5.19844 26.8518 5.45777 24.6907 5.45777C21.4058 5.45777 13.1936 5.45777 8.35278 5.45777L11.6377 9.86642C17.6023 9.86642 26.9382 9.86642 31.2604 9.86642C33.0758 9.86642 34.6318 10.2122 36.1013 11.1631C36.3607 11.2495 36.62 11.2495 36.7064 11.1631Z" fill="#66C61C"/>
<path d="M40.3371 18.2517C39.9049 17.8195 39.4727 17.3873 39.0405 16.955C37.7438 15.5719 36.3607 14.1888 34.6318 13.3244C32.6436 12.2871 30.4825 12.5464 28.3214 12.5464C25.4688 12.5464 18.6397 12.5464 13.7988 12.5464L17.0837 16.955C22.9619 16.955 31.0012 16.955 34.9776 16.955C36.7929 16.955 38.3489 17.3008 39.8185 18.2517C39.9914 18.3381 40.1643 18.3381 40.3371 18.2517Z" fill="#4CA30D"/>
<path d="M44.3999 25.167C43.9676 24.7348 43.5354 24.3025 43.1032 23.8703C41.8065 22.4872 40.4234 21.1041 38.6946 20.2397C36.7064 19.2023 34.5453 19.4617 32.3842 19.4617C29.7044 19.4617 23.8262 19.4617 19.0718 19.4617L22.3566 23.8703C28.0619 23.8703 35.3233 23.8703 38.9539 23.8703C40.7692 23.8703 42.3252 24.2161 43.7948 25.167C44.0541 25.2534 44.227 25.3399 44.3999 25.167Z" fill="#3B7C0F"/>
<path d="M8.00708 36.8368C8.4393 37.269 8.87152 37.7012 9.30374 38.1335C10.6004 39.5166 11.9835 40.8997 13.7124 41.7641C15.7006 42.8014 17.8617 42.5421 20.0228 42.5421H36.3607L33.0758 38.1335C27.1112 38.1335 17.7753 38.1335 13.4531 38.1335C11.6377 38.1335 10.0817 37.7877 8.61219 36.8368C8.35285 36.7504 8.17997 36.7504 8.00708 36.8368Z" fill="#66C61C"/>
<path d="M4.37646 29.7487C4.80868 30.1809 5.24091 30.6131 5.67313 31.0453C6.96979 32.4284 8.35288 33.8116 10.0818 34.676C12.07 35.7133 14.2311 35.454 16.3922 35.454H30.9148L27.6299 31.0453C21.7517 31.0453 13.7124 31.0453 9.73599 31.0453C7.92067 31.0453 6.36467 30.6996 4.89512 29.7487C4.72223 29.6622 4.54935 29.6622 4.37646 29.7487Z" fill="#4CA30D"/>
<path d="M0.399902 22.7465C0.832122 23.1787 1.26434 23.6109 1.69656 24.0431C2.99322 25.4262 4.37633 26.8094 6.10521 27.6738C8.09343 28.7111 10.2545 28.4518 12.4156 28.4518H25.728L22.4431 24.0431C16.7378 24.0431 9.47653 24.0431 5.84588 24.0431C4.03055 24.0431 2.47456 23.6974 1.00501 22.7465C0.745676 22.66 0.57279 22.66 0.399902 22.7465Z" fill="#3B7C0F"/>
<path d="M54.3318 14.0081V34.0001H58.7278V25.7401H67.0998V22.3241H58.7278V17.7041H68.3878V14.0081H54.3318Z" fill="#101828"/>
<path d="M79.4134 25.2081H72.9454C72.9641 24.9281 73.0201 24.6107 73.1134 24.2561C73.2254 23.9014 73.4028 23.5654 73.6454 23.2481C73.9068 22.9307 74.2428 22.6694 74.6534 22.4641C75.0828 22.2401 75.6148 22.1281 76.2494 22.1281C77.2201 22.1281 77.9388 22.3894 78.4054 22.9121C78.8908 23.4347 79.2268 24.2001 79.4134 25.2081ZM72.9454 27.7281H83.3894C83.4641 26.6081 83.3708 25.5347 83.1094 24.5081C82.8481 23.4814 82.4188 22.5667 81.8214 21.7641C81.2428 20.9614 80.4961 20.3267 79.5814 19.8601C78.6668 19.3747 77.5934 19.1321 76.3614 19.1321C75.2601 19.1321 74.2521 19.3281 73.3374 19.7201C72.4414 20.1121 71.6668 20.6534 71.0134 21.3441C70.3601 22.0161 69.8561 22.8187 69.5014 23.7521C69.1468 24.6854 68.9694 25.6934 68.9694 26.7761C68.9694 27.8961 69.1374 28.9227 69.4734 29.8561C69.8281 30.7894 70.3228 31.5921 70.9574 32.2641C71.5921 32.9361 72.3668 33.4587 73.2814 33.8321C74.1961 34.1867 75.2228 34.3641 76.3614 34.3641C78.0041 34.3641 79.4041 33.9907 80.5614 33.2441C81.7188 32.4974 82.5774 31.2561 83.1374 29.5201H79.6374C79.5068 29.9681 79.1521 30.3974 78.5734 30.8081C77.9948 31.2001 77.3041 31.3961 76.5014 31.3961C75.3814 31.3961 74.5228 31.1067 73.9254 30.5281C73.3281 29.9494 73.0014 29.0161 72.9454 27.7281Z" fill="#101828"/>
<path d="M84.7396 23.9761C84.7956 23.0427 85.0289 22.2681 85.4396 21.6521C85.8502 21.0361 86.3729 20.5414 87.0076 20.1681C87.6422 19.7947 88.3516 19.5334 89.1356 19.3841C89.9382 19.2161 90.7409 19.1321 91.5436 19.1321C92.2716 19.1321 93.0089 19.1881 93.7556 19.3001C94.5022 19.3934 95.1836 19.5894 95.7996 19.8881C96.4156 20.1867 96.9196 20.6067 97.3116 21.1481C97.7036 21.6707 97.8996 22.3707 97.8996 23.2481V30.7801C97.8996 31.4334 97.9369 32.0587 98.0116 32.6561C98.0862 33.2534 98.2169 33.7014 98.4036 34.0001H94.3716C94.2969 33.7761 94.2316 33.5521 94.1756 33.3281C94.1382 33.0854 94.1102 32.8427 94.0916 32.6001C93.4569 33.2534 92.7102 33.7107 91.8516 33.9721C90.9929 34.2334 90.1156 34.3641 89.2196 34.3641C88.5289 34.3641 87.8849 34.2801 87.2876 34.1121C86.6902 33.9441 86.1676 33.6827 85.7196 33.3281C85.2716 32.9734 84.9169 32.5254 84.6556 31.9841C84.4129 31.4427 84.2916 30.7987 84.2916 30.0521C84.2916 29.2307 84.4316 28.5587 84.7116 28.0361C85.0102 27.4947 85.3836 27.0654 85.8316 26.7481C86.2982 26.4307 86.8209 26.1974 87.3996 26.0481C87.9969 25.8801 88.5942 25.7494 89.1916 25.6561C89.7889 25.5627 90.3769 25.4881 90.9556 25.4321C91.5342 25.3761 92.0476 25.2921 92.4956 25.1801C92.9436 25.0681 93.2982 24.9094 93.5596 24.7041C93.8209 24.4801 93.9422 24.1627 93.9236 23.7521C93.9236 23.3227 93.8489 22.9867 93.6996 22.7441C93.5689 22.4827 93.3822 22.2867 93.1396 22.1561C92.9156 22.0067 92.6449 21.9134 92.3276 21.8761C92.0289 21.8201 91.7022 21.7921 91.3476 21.7921C90.5636 21.7921 89.9476 21.9601 89.4996 22.2961C89.0516 22.6321 88.7902 23.1921 88.7156 23.9761H84.7396ZM93.9236 26.9161C93.7556 27.0654 93.5409 27.1867 93.2796 27.2801C93.0369 27.3547 92.7662 27.4201 92.4676 27.4761C92.1876 27.5321 91.8889 27.5787 91.5716 27.6161C91.2542 27.6534 90.9369 27.7001 90.6196 27.7561C90.3209 27.8121 90.0222 27.8867 89.7236 27.9801C89.4436 28.0734 89.1916 28.2041 88.9676 28.3721C88.7622 28.5214 88.5942 28.7174 88.4636 28.9601C88.3329 29.2027 88.2676 29.5107 88.2676 29.8841C88.2676 30.2387 88.3329 30.5374 88.4636 30.7801C88.5942 31.0227 88.7716 31.2187 88.9956 31.3681C89.2196 31.4987 89.4809 31.5921 89.7796 31.6481C90.0782 31.7041 90.3862 31.7321 90.7036 31.7321C91.4876 31.7321 92.0942 31.6014 92.5236 31.3401C92.9529 31.0787 93.2702 30.7707 93.4756 30.4161C93.6809 30.0427 93.8022 29.6694 93.8396 29.2961C93.8956 28.9227 93.9236 28.6241 93.9236 28.4001V26.9161Z" fill="#101828"/>
<path d="M105.186 19.5241V15.1841H101.21V19.5241H98.8017V22.1841H101.21V30.7241C101.21 31.4521 101.331 32.0401 101.574 32.4881C101.816 32.9361 102.143 33.2814 102.554 33.5241C102.983 33.7667 103.468 33.9254 104.01 34.0001C104.57 34.0934 105.158 34.1401 105.774 34.1401C106.166 34.1401 106.567 34.1307 106.978 34.1121C107.388 34.0934 107.762 34.0561 108.098 34.0001V30.9201C107.911 30.9574 107.715 30.9854 107.51 31.0041C107.304 31.0227 107.09 31.0321 106.866 31.0321C106.194 31.0321 105.746 30.9201 105.522 30.6961C105.298 30.4721 105.186 30.0241 105.186 29.3521V22.1841H108.098V19.5241H105.186Z" fill="#101828"/>
<path d="M109.149 14.0081V34.0001H113.125V26.4121C113.125 24.9374 113.368 23.8827 113.853 23.2481C114.339 22.5947 115.123 22.2681 116.205 22.2681C117.157 22.2681 117.82 22.5667 118.193 23.1641C118.567 23.7427 118.753 24.6294 118.753 25.8241V34.0001H122.729V25.0961C122.729 24.2001 122.645 23.3881 122.477 22.6601C122.328 21.9134 122.057 21.2881 121.665 20.7841C121.273 20.2614 120.732 19.8601 120.041 19.5801C119.369 19.2814 118.501 19.1321 117.437 19.1321C116.691 19.1321 115.925 19.3281 115.141 19.7201C114.357 20.0934 113.713 20.7001 113.209 21.5401H113.125V14.0081H109.149Z" fill="#101828"/>
<path d="M134.651 25.2081H128.183C128.202 24.9281 128.258 24.6107 128.351 24.2561C128.463 23.9014 128.64 23.5654 128.883 23.2481C129.144 22.9307 129.48 22.6694 129.891 22.4641C130.32 22.2401 130.852 22.1281 131.487 22.1281C132.458 22.1281 133.176 22.3894 133.643 22.9121C134.128 23.4347 134.464 24.2001 134.651 25.2081ZM128.183 27.7281H138.627C138.702 26.6081 138.608 25.5347 138.347 24.5081C138.086 23.4814 137.656 22.5667 137.059 21.7641C136.48 20.9614 135.734 20.3267 134.819 19.8601C133.904 19.3747 132.831 19.1321 131.599 19.1321C130.498 19.1321 129.49 19.3281 128.575 19.7201C127.679 20.1121 126.904 20.6534 126.251 21.3441C125.598 22.0161 125.094 22.8187 124.739 23.7521C124.384 24.6854 124.207 25.6934 124.207 26.7761C124.207 27.8961 124.375 28.9227 124.711 29.8561C125.066 30.7894 125.56 31.5921 126.195 32.2641C126.83 32.9361 127.604 33.4587 128.519 33.8321C129.434 34.1867 130.46 34.3641 131.599 34.3641C133.242 34.3641 134.642 33.9907 135.799 33.2441C136.956 32.4974 137.815 31.2561 138.375 29.5201H134.875C134.744 29.9681 134.39 30.3974 133.811 30.8081C133.232 31.2001 132.542 31.3961 131.739 31.3961C130.619 31.3961 129.76 31.1067 129.163 30.5281C128.566 29.9494 128.239 29.0161 128.183 27.7281Z" fill="#101828"/>
<path d="M140.145 19.5241V34.0001H144.121V27.4761C144.121 26.8227 144.187 26.2161 144.317 25.6561C144.448 25.0961 144.663 24.6107 144.961 24.2001C145.279 23.7707 145.689 23.4347 146.193 23.1921C146.697 22.9494 147.313 22.8281 148.041 22.8281C148.284 22.8281 148.536 22.8467 148.797 22.8841C149.059 22.9027 149.283 22.9307 149.469 22.9681V19.2721C149.152 19.1787 148.863 19.1321 148.601 19.1321C148.097 19.1321 147.612 19.2067 147.145 19.3561C146.679 19.5054 146.24 19.7201 145.829 20.0001C145.419 20.2614 145.055 20.5881 144.737 20.9801C144.42 21.3534 144.168 21.7641 143.981 22.2121H143.925V19.5241H140.145Z" fill="#101828"/>
<path d="M155.004 30.3041V17.7041H158.14C159.223 17.7041 160.128 17.8627 160.856 18.1801C161.603 18.4787 162.2 18.9174 162.648 19.4961C163.096 20.0747 163.413 20.7747 163.6 21.5961C163.805 22.3987 163.908 23.3041 163.908 24.3121C163.908 25.4134 163.768 26.3467 163.488 27.1121C163.208 27.8774 162.835 28.5027 162.368 28.9881C161.901 29.4547 161.369 29.7907 160.772 29.9961C160.175 30.2014 159.559 30.3041 158.924 30.3041H155.004ZM150.608 14.0081V34.0001H159.232C160.763 34.0001 162.088 33.7481 163.208 33.2441C164.347 32.7214 165.289 32.0121 166.036 31.1161C166.801 30.2201 167.371 29.1561 167.744 27.9241C168.117 26.6921 168.304 25.3481 168.304 23.8921C168.304 22.2307 168.071 20.7841 167.604 19.5521C167.156 18.3201 166.521 17.2934 165.7 16.4721C164.897 15.6507 163.936 15.0347 162.816 14.6241C161.715 14.2134 160.52 14.0081 159.232 14.0081H150.608Z" fill="#101828"/>
<path d="M179.846 25.2081H173.378C173.397 24.9281 173.453 24.6107 173.546 24.2561C173.658 23.9014 173.835 23.5654 174.078 23.2481C174.339 22.9307 174.675 22.6694 175.086 22.4641C175.515 22.2401 176.047 22.1281 176.682 22.1281C177.653 22.1281 178.371 22.3894 178.838 22.9121C179.323 23.4347 179.659 24.2001 179.846 25.2081ZM173.378 27.7281H183.822C183.897 26.6081 183.803 25.5347 183.542 24.5081C183.281 23.4814 182.851 22.5667 182.254 21.7641C181.675 20.9614 180.929 20.3267 180.014 19.8601C179.099 19.3747 178.026 19.1321 176.794 19.1321C175.693 19.1321 174.685 19.3281 173.77 19.7201C172.874 20.1121 172.099 20.6534 171.446 21.3441C170.793 22.0161 170.289 22.8187 169.934 23.7521C169.579 24.6854 169.402 25.6934 169.402 26.7761C169.402 27.8961 169.57 28.9227 169.906 29.8561C170.261 30.7894 170.755 31.5921 171.39 32.2641C172.025 32.9361 172.799 33.4587 173.714 33.8321C174.629 34.1867 175.655 34.3641 176.794 34.3641C178.437 34.3641 179.837 33.9907 180.994 33.2441C182.151 32.4974 183.01 31.2561 183.57 29.5201H180.07C179.939 29.9681 179.585 30.3974 179.006 30.8081C178.427 31.2001 177.737 31.3961 176.934 31.3961C175.814 31.3961 174.955 31.1067 174.358 30.5281C173.761 29.9494 173.434 29.0161 173.378 27.7281Z" fill="#101828"/>
<path d="M193.348 34.0001L198.248 19.5241H194.3L191.248 29.4081H191.192L188.14 19.5241H183.968L188.924 34.0001H193.348Z" fill="#101828"/>
</svg>
